0
SECTION
2
HEADER
9
$INSUNITS
70
4
9
$ACADVER
1
AC1014
9
$HANDSEED
5
FFFF
0
ENDSEC
0
SECTION
2
TABLES
0
TABLE
2
VPORT
5
8
100
AcDbSymbolTable
0
ENDTAB
0
TABLE
2
LTYPE
5
5
100
AcDbSymbolTable
0
LTYPE
5
14
100
AcDbSymbolTableRecord
100
AcDbLinetypeTableRecord
2
BYBLOCK
70
0
0
LTYPE
5
15
100
AcDbSymbolTableRecord
100
AcDbLinetypeTableRecord
2
BYLAYER
70
0
0
ENDTAB
0
TABLE
2
LAYER
5
2
100
AcDbSymbolTable
70
2
0
LAYER
5
50
100
AcDbSymbolTableRecord
100
AcDbLayerTableRecord
2
0
70
0
6
CONTINUOUS
0
ENDTAB
0
TABLE
2
STYLE
5
3
100
AcDbSymbolTable
70
1
0
STYLE
5
11
100
AcDbSymbolTableRecord
100
AcDbTextStyleTableRecord
2
STANDARD
70
0
0
ENDTAB
0
TABLE
2
VIEW
5
6
100
AcDbSymbolTable
70
0
0
ENDTAB
0
TABLE
2
UCS
5
7
100
AcDbSymbolTable
70
0
0
ENDTAB
0
TABLE
2
APPID
5
9
100
AcDbSymbolTable
70
2
0
APPID
5
12
100
AcDbSymbolTableRecord
100
AcDbRegAppTableRecord
2
ACAD
70
0
0
ENDTAB
0
TABLE
2
DIMSTYLE
5
A
100
AcDbSymbolTable
70
1
0
ENDTAB
0
TABLE
2
BLOCK_RECORD
5
1
100
AcDbSymbolTable
70
1
0
BLOCK_RECORD
5
1F
100
AcDbSymbolTableRecord
100
AcDbBlockTableRecord
2
*MODEL_SPACE
0
BLOCK_RECORD
5
1B
100
AcDbSymbolTableRecord
100
AcDbBlockTableRecord
2
*PAPER_SPACE
0
ENDTAB
0
ENDSEC
0
SECTION
2
BLOCKS
0
BLOCK
5
20
100
AcDbEntity
100
AcDbBlockBegin
2
*MODEL_SPACE
0
ENDBLK
5
21
100
AcDbEntity
100
AcDbBlockEnd
0
BLOCK
5
1C
100
AcDbEntity
100
AcDbBlockBegin
2
*PAPER_SPACE
0
ENDBLK
5
1D
100
AcDbEntity
100
AcDbBlockEnd
0
ENDSEC
0
SECTION
2
ENTITIES
0
LINE
5
100
100
AcDbEntity
8
0
100
AcDbLine
10
0
20
0
30
0
11
10.000000149011612
21
0
31
0
0
LINE
5
101
100
AcDbEntity
8
0
100
AcDbLine
10
0
20
10.000000149011612
30
0
11
0
21
0
31
0
0
LINE
5
102
100
AcDbEntity
8
0
100
AcDbLine
10
10.000000149011612
20
10.000000149011612
30
0
11
10.000000149011612
21
25.670000149011614
31
0
0
LINE
5
103
100
AcDbEntity
8
0
100
AcDbLine
10
10.000000149011612
20
10.000000149011612
30
0
11
25.670000149011614
21
10.000000149011612
31
0
0
LINE
5
104
100
AcDbEntity
8
0
100
AcDbLine
10
25.670000149011614
20
10.000000149011612
30
0
11
10.000000149011612
21
10.000000149011612
31
0
0
LINE
5
105
100
AcDbEntity
8
0
100
AcDbLine
10
10.000000149011612
20
10.000000149011612
30
0
11
10.000000149011612
21
25.670000149011614
31
0
0
LINE
5
106
100
AcDbEntity
8
0
100
AcDbLine
10
10.000000149011612
20
25.670000149011614
30
0
11
25.670000149011614
21
25.670000149011614
31
0
0
LINE
5
107
100
AcDbEntity
8
0
100
AcDbLine
10
25.670000149011614
20
25.670000149011614
30
0
11
25.670000149011614
21
10.000000149011612
31
0
0
LINE
5
108
100
AcDbEntity
8
0
100
AcDbLine
10
10.000000149011612
20
25.670000149011614
30
0
11
25.677598522821157
21
25.670000149011614
31
0
0
LINE
5
109
100
AcDbEntity
8
0
100
AcDbLine
10
25.677598522821157
20
28.670000149011614
30
0
11
10.000000149011612
21
28.670000149011614
31
0
0
LINE
5
110
100
AcDbEntity
8
0
100
AcDbLine
10
10.000000149011612
20
28.670000149011614
30
0
11
10.000000149011612
21
44.340000149011615
31
0
0
LINE
5
111
100
AcDbEntity
8
0
100
AcDbLine
10
25.677598522821157
20
28.670000149011614
30
0
11
10.000000149011612
21
28.670000149011614
31
0
0
LINE
5
112
100
AcDbEntity
8
0
100
AcDbLine
10
10.000000149011612
20
28.670000149011614
30
0
11
10.000000149011612
21
44.340000149011615
31
0
0
LINE
5
113
100
AcDbEntity
8
0
100
AcDbLine
10
10.000000149011612
20
44.340000149011615
30
0
11
25.677598522821157
21
44.340000149011615
31
0
0
LINE
5
114
100
AcDbEntity
8
0
100
AcDbLine
10
25.677598522821157
20
44.340000149011615
30
0
11
25.677598522821157
21
28.670000149011614
31
0
0
LINE
5
115
100
AcDbEntity
8
0
100
AcDbLine
10
10.000000149011612
20
47.340000149011615
30
0
11
25.677598522821157
21
47.340000149011615
31
0
0
LINE
5
116
100
AcDbEntity
8
0
100
AcDbLine
10
25.677598522821157
20
44.340000149011615
30
0
11
10.000000149011612
21
44.340000149011615
31
0
0
LINE
5
117
100
AcDbEntity
8
0
100
AcDbLine
10
10.000000149011612
20
47.340000149011615
30
0
11
10.000000149011612
21
63.010000149011617
31
0
0
LINE
5
118
100
AcDbEntity
8
0
100
AcDbLine
10
25.677598522821157
20
47.340000149011615
30
0
11
10.000000149011612
21
47.340000149011615
31
0
0
LINE
5
119
100
AcDbEntity
8
0
100
AcDbLine
10
10.000000149011612
20
47.340000149011615
30
0
11
10.000000149011612
21
63.010000149011617
31
0
0
LINE
5
120
100
AcDbEntity
8
0
100
AcDbLine
10
10.000000149011612
20
63.010000149011617
30
0
11
25.677598522821157
21
63.010000149011617
31
0
0
LINE
5
121
100
AcDbEntity
8
0
100
AcDbLine
10
25.677598522821157
20
63.010000149011617
30
0
11
25.677598522821157
21
47.340000149011615
31
0
0
LINE
5
122
100
AcDbEntity
8
0
100
AcDbLine
10
25.670000149011614
20
10.000000149011612
30
0
11
25.677598522821157
21
10.000000149011612
31
0
0
LINE
5
123
100
AcDbEntity
8
0
100
AcDbLine
10
28.670000149011614
20
10.000000149011612
30
0
11
44.340000149011615
21
10.000000149011612
31
0
0
LINE
5
124
100
AcDbEntity
8
0
100
AcDbLine
10
44.340000149011615
20
10.000000149011612
30
0
11
28.670000149011614
21
10.000000149011612
31
0
0
LWPOLYLINE
5
125
100
AcDbEntity
8
0
100
AcDbPolyline
90
4
70
1
43
0.0
10
44.340000149011615
20
63.010000149011617
10
28.670000149011614
20
63.010000149011617
10
28.670000149011614
20
47.340000149011615
10
44.340000149011615
20
47.340000149011615
0
LINE
5
126
100
AcDbEntity
8
0
100
AcDbLine
10
47.340000149011615
20
10.000000149011612
30
0
11
63.010000149011617
21
10.000000149011612
31
0
0
LINE
5
127
100
AcDbEntity
8
0
100
AcDbLine
10
63.010000149011617
20
10.000000149011612
30
0
11
47.340000149011615
21
10.000000149011612
31
0
0
LINE
5
128
100
AcDbEntity
8
0
100
AcDbLine
10
47.340000149011615
20
63.010000149011617
30
0
11
63.010000149011617
21
63.010000149011617
31
0
0
LINE
5
129
100
AcDbEntity
8
0
100
AcDbLine
10
0
20
63.010000149011617
30
0
11
0
21
73.01000346778892
31
0
0
LINE
5
130
100
AcDbEntity
8
0
100
AcDbLine
10
0
20
73.01000346778892
30
0
11
10.000000149011612
21
73.01000346778892
31
0
0
LINE
5
131
100
AcDbEntity
8
0
100
AcDbLine
10
109.17000014901161
20
53.01000346778892
30
0
11
109.17000014901161
21
20.140181928425829
31
0
0
LINE
5
132
100
AcDbEntity
8
0
100
AcDbLine
10
63.010000149011617
20
63.010000149011617
30
0
11
63.010000149011617
21
47.340000149011615
31
0
0
LINE
5
133
100
AcDbEntity
8
0
100
AcDbLine
10
63.010000149011617
20
63.010000149011617
30
0
11
63.010000149011617
21
47.340000149011615
31
0
0
LWPOLYLINE
5
134
100
AcDbEntity
8
0
100
AcDbPolyline
90
4
70
1
43
0.0
10
63.010000149011617
20
28.670000149011614
10
63.010000149011617
20
44.340000149011615
10
47.340000149011615
20
44.340000149011615
10
47.340000149011615
20
28.670000149011614
0
LINE
5
135
100
AcDbEntity
8
0
100
AcDbLine
10
63.010000149011617
20
25.670000149011614
30
0
11
63.010000149011617
21
10.000000149011612
31
0
0
LINE
5
136
100
AcDbEntity
8
0
100
AcDbLine
10
63.010000149011617
20
44.340000149011615
30
0
11
63.010000149011617
21
28.670000149011614
31
0
0
LINE
5
137
100
AcDbEntity
8
0
100
AcDbLine
10
63.010000149011617
20
25.670000149011614
30
0
11
63.010000149011617
21
10.000000149011612
31
0
0
CIRCLE
5
138
100
AcDbEntity
8
0
100
AcDbCircle
10
85.820000149011619
20
12.835000149011613
30
0
40
3.3500000000000085
210
0
220
0
230
1
0
CIRCLE
5
139
100
AcDbEntity
8
0
100
AcDbCircle
10
85.820000149011619
20
36.505000149011614
30
0
40
3.3499999999999908
210
0
220
0
230
1
0
CIRCLE
5
140
100
AcDbEntity
8
0
100
AcDbCircle
10
85.820000149011619
20
60.175000149011609
30
0
40
3.3499999999999908
210
0
220
0
230
1
0
LINE
5
141
100
AcDbEntity
8
0
100
AcDbLine
10
0
20
10.000000149011612
30
0
11
0
21
0
31
0
0
LINE
5
142
100
AcDbEntity
8
0
100
AcDbLine
10
0
20
0
30
0
11
109.17000014901161
21
0
31
0
0
LINE
5
143
100
AcDbEntity
8
0
100
AcDbLine
10
109.17000014901161
20
0
30
0
11
109.17000014901161
21
10.000000149011612
31
0
0
LINE
5
144
100
AcDbEntity
8
0
100
AcDbLine
10
0
20
63.010000149011617
30
0
11
0
21
73.01000346778892
31
0
0
LINE
5
145
100
AcDbEntity
8
0
100
AcDbLine
10
0
20
73.01000346778892
30
0
11
109.17000014901161
21
73.01000346778892
31
0
0
LINE
5
146
100
AcDbEntity
8
0
100
AcDbLine
10
109.17000014901161
20
73.01000346778892
30
0
11
109.17000014901161
21
63.010000149011617
31
0
0
LINE
5
147
100
AcDbEntity
8
0
100
AcDbLine
10
109.17000014901161
20
0
30
0
11
0
21
0
31
0
0
LINE
5
148
100
AcDbEntity
8
0
100
AcDbLine
10
0
20
73.01000346778892
30
0
11
109.17000014901161
21
73.01000346778892
31
0
0
LINE
5
149
100
AcDbEntity
8
0
100
AcDbLine
10
25.677598522821157
20
63.010000149011617
30
0
11
10.000000149011612
21
63.010000149011617
31
0
0
LINE
5
150
100
AcDbEntity
8
0
100
AcDbLine
10
28.670000149011614
20
63.010000149011617
30
0
11
28.670000149011614
21
47.340000149011615
31
0
0
LINE
5
151
100
AcDbEntity
8
0
100
AcDbLine
10
44.340000149011615
20
63.010000149011617
30
0
11
44.340000149011615
21
47.340000149011615
31
0
0
LINE
5
152
100
AcDbEntity
8
0
100
AcDbLine
10
47.340000149011615
20
47.340000149011615
30
0
11
47.340000149011615
21
63.010000149011617
31
0
0
LINE
5
153
100
AcDbEntity
8
0
100
AcDbLine
10
47.340000149011615
20
63.010000149011617
30
0
11
47.340000149011615
21
47.340000149011615
31
0
0
LINE
5
154
100
AcDbEntity
8
0
100
AcDbLine
10
47.340000149011615
20
47.340000149011615
30
0
11
63.010000149011617
21
47.340000149011615
31
0
0
LWPOLYLINE
5
155
100
AcDbEntity
8
0
100
AcDbPolyline
90
4
70
1
43
0.0
10
44.340000149011615
20
44.340000149011615
10
28.670000149011614
20
44.340000149011615
10
28.670000149011614
20
28.670000149011614
10
44.340000149011615
20
28.670000149011614
0
LINE
5
156
100
AcDbEntity
8
0
100
AcDbLine
10
44.340000149011615
20
63.010000149011617
30
0
11
28.670000149011614
21
63.010000149011617
31
0
0
LINE
5
157
100
AcDbEntity
8
0
100
AcDbLine
10
25.677598522821157
20
10.000000149011612
30
0
11
25.677598522821157
21
25.670000149011614
31
0
0
LINE
5
158
100
AcDbEntity
8
0
100
AcDbLine
10
25.677598522821157
20
28.670000149011614
30
0
11
25.677598522821157
21
44.340000149011615
31
0
0
LINE
5
159
100
AcDbEntity
8
0
100
AcDbLine
10
28.670000149011614
20
10.000000149011612
30
0
11
28.670000149011614
21
25.670000149011614
31
0
0
LINE
5
160
100
AcDbEntity
8
0
100
AcDbLine
10
28.670000149011614
20
44.340000149011615
30
0
11
28.670000149011614
21
28.670000149011614
31
0
0
LINE
5
161
100
AcDbEntity
8
0
100
AcDbLine
10
28.670000149011614
20
25.670000149011614
30
0
11
28.670000149011614
21
10.000000149011612
31
0
0
LINE
5
162
100
AcDbEntity
8
0
100
AcDbLine
10
25.670000149011614
20
25.670000149011614
30
0
11
25.677598522821157
21
25.670000149011614
31
0
0
LINE
5
163
100
AcDbEntity
8
0
100
AcDbLine
10
25.677598522821157
20
10.000000149011612
30
0
11
10.000000149011612
21
10.000000149011612
31
0
0
LINE
5
164
100
AcDbEntity
8
0
100
AcDbLine
10
63.010000149011617
20
10.000000149011612
30
0
11
47.340000149011615
21
10.000000149011612
31
0
0
LINE
5
165
100
AcDbEntity
8
0
100
AcDbLine
10
44.340000149011615
20
10.000000149011612
30
0
11
28.670000149011614
21
10.000000149011612
31
0
0
LINE
5
166
100
AcDbEntity
8
0
100
AcDbLine
10
44.340000149011615
20
10.000000149011612
30
0
11
44.340000149011615
21
25.670000149011614
31
0
0
LINE
5
167
100
AcDbEntity
8
0
100
AcDbLine
10
44.340000149011615
20
44.340000149011615
30
0
11
44.340000149011615
21
28.670000149011614
31
0
0
LINE
5
168
100
AcDbEntity
8
0
100
AcDbLine
10
44.340000149011615
20
25.670000149011614
30
0
11
44.340000149011615
21
10.000000149011612
31
0
0
LINE
5
169
100
AcDbEntity
8
0
100
AcDbLine
10
28.670000149011614
20
25.670000149011614
30
0
11
44.340000149011615
21
25.670000149011614
31
0
0
LINE
5
170
100
AcDbEntity
8
0
100
AcDbLine
10
47.340000149011615
20
25.670000149011614
30
0
11
63.010000149011617
21
25.670000149011614
31
0
0
LINE
5
171
100
AcDbEntity
8
0
100
AcDbLine
10
47.340000149011615
20
25.670000149011614
30
0
11
47.340000149011615
21
10.000000149011612
31
0
0
LINE
5
172
100
AcDbEntity
8
0
100
AcDbLine
10
47.340000149011615
20
10.000000149011612
30
0
11
47.340000149011615
21
25.670000149011614
31
0
0
LINE
5
173
100
AcDbEntity
8
0
100
AcDbLine
10
47.340000149011615
20
28.670000149011614
30
0
11
47.340000149011615
21
44.340000149011615
31
0
0
LINE
5
174
100
AcDbEntity
8
0
100
AcDbLine
10
63.010000149011617
20
63.010000149011617
30
0
11
47.340000149011615
21
63.010000149011617
31
0
0
LINE
5
175
100
AcDbEntity
8
0
100
AcDbLine
10
-3.5000000521540642
20
10.000000149011612
30
0
11
0
21
10.000000149011612
31
0
0
LINE
5
176
100
AcDbEntity
8
0
100
AcDbLine
10
0
20
10.000000149011612
30
0
11
0
21
0
31
0
0
LINE
5
177
100
AcDbEntity
8
0
100
AcDbLine
10
-3.5000000521540642
20
63.01000346778892
30
0
11
0
21
63.01000346778892
31
0
0
LINE
5
178
100
AcDbEntity
8
0
100
AcDbLine
10
0
20
63.01000346778892
30
0
11
0
21
73.01000346778892
31
0
0
LINE
5
179
100
AcDbEntity
8
0
100
AcDbLine
10
-3.5000000521540642
20
10.000000149011612
30
0
11
-3.5000000521540642
21
20.000000298023224
31
0
0
LINE
5
180
100
AcDbEntity
8
0
100
AcDbLine
10
-3.5000000521540642
20
63.01000346778892
30
0
11
-3.5000000521540642
21
53.01000346778892
31
0
0
LINE
5
181
100
AcDbEntity
8
0
100
AcDbLine
10
-3.5000000521540642
20
53.01000346778892
30
0
11
0
21
53.01000346778892
31
0
0
LINE
5
182
100
AcDbEntity
8
0
100
AcDbLine
10
0
20
63.010000149011617
30
0
11
-3.5000000521540642
21
63.010000149011617
31
0
0
LINE
5
183
100
AcDbEntity
8
0
100
AcDbLine
10
-3.5000000521540642
20
63.010000149011617
30
0
11
-3.5000000521540642
21
53.01000346778892
31
0
0
LINE
5
184
100
AcDbEntity
8
0
100
AcDbLine
10
-3.5000000521540642
20
20.000000298023224
30
0
11
0
21
20.000000298023224
31
0
0
LINE
5
185
100
AcDbEntity
8
0
100
AcDbLine
10
0
20
10.000000149011612
30
0
11
-3.5000000521540642
21
10.000000149011612
31
0
0
LINE
5
186
100
AcDbEntity
8
0
100
AcDbLine
10
-3.5000000521540642
20
10.000000149011612
30
0
11
-3.5000000521540642
21
20.000000298023224
31
0
0
LINE
5
187
100
AcDbEntity
8
0
100
AcDbLine
10
113.00000168383121
20
10
30
0
11
109.17000014901161
21
10.000000149011612
31
0
0
LINE
5
188
100
AcDbEntity
8
0
100
AcDbLine
10
113.00000168383121
20
10
30
0
11
113.0000016892852
21
10.140181928425838
31
0
0
LINE
5
189
100
AcDbEntity
8
0
100
AcDbLine
10
113.0000016892852
20
10.140181928425838
30
0
11
113.0000020783493
21
20.140181928425829
31
0
0
LINE
5
190
100
AcDbEntity
8
0
100
AcDbLine
10
113.0000020783493
20
20.140181928425829
30
0
11
109.17000014901161
21
20.140181928425829
31
0
0
LINE
5
191
100
AcDbEntity
8
0
100
AcDbLine
10
112.6700001490116
20
63.01000346778892
30
0
11
109.17000014901161
21
63.01000346778892
31
0
0
LINE
5
192
100
AcDbEntity
8
0
100
AcDbLine
10
109.17000014901161
20
53.01000346778892
30
0
11
112.6700001490116
21
53.01000346778892
31
0
0
LINE
5
193
100
AcDbEntity
8
0
100
AcDbLine
10
112.6700001490116
20
53.01000346778892
30
0
11
112.6700001490116
21
63.01000346778892
31
0
0
LINE
5
194
100
AcDbEntity
8
0
100
AcDbLine
10
25.670000149011614
20
17.835000149011613
30
0
11
25.677598522821157
21
17.835000149011613
31
0
0
LINE
5
195
100
AcDbEntity
8
0
100
AcDbLine
10
10.000000149011612
20
10.585000149011613
30
0
11
10.000000149011612
21
10.000000149011612
31
0
0
LINE
5
196
100
AcDbEntity
8
0
100
AcDbLine
10
10.000000149011612
20
25.085000149011613
30
0
11
10.000000149011612
21
25.670000149011614
31
0
0
LINE
5
197
100
AcDbEntity
8
0
100
AcDbLine
10
10.000000149011612
20
25.670000149011614
30
0
11
25.677598522821157
21
25.670000149011614
31
0
0
LINE
5
198
100
AcDbEntity
8
0
100
AcDbLine
10
10.000000149011612
20
10.000000149011612
30
0
11
25.677598522821157
21
10.000000149011612
31
0
0
LINE
5
199
100
AcDbEntity
8
0
100
AcDbLine
10
28.670000149011614
20
10.000000149011612
30
0
11
44.340000149011615
21
10.000000149011612
31
0
0
LINE
5
200
100
AcDbEntity
8
0
100
AcDbLine
10
47.340000149011615
20
10.000000149011612
30
0
11
63.010000149011617
21
10.000000149011612
31
0
0
LWPOLYLINE
5
201
100
AcDbEntity
8
0
100
AcDbPolyline
90
4
70
1
43
0.0
10
47.925000149011616
20
10.585000149011613
10
62.425000149011609
20
10.585000149011615
10
62.425000149011609
20
25.085000149011613
10
47.925000149011616
20
25.08500014901162
0
LWPOLYLINE
5
202
100
AcDbEntity
8
0
100
AcDbPolyline
90
4
70
1
43
0.0
10
29.255000149011614
20
10.585000149011613
10
43.755000149011622
20
10.585000149011613
10
43.755000149011622
20
25.08500014901162
10
29.255000149011611
20
25.08500014901162
0
LINE
5
203
100
AcDbEntity
8
0
100
AcDbLine
10
28.670000149011614
20
25.670000149011614
30
0
11
44.340000149011615
21
25.670000149011614
31
0
0
LINE
5
204
100
AcDbEntity
8
0
100
AcDbLine
10
47.340000149011615
20
25.670000149011614
30
0
11
63.010000149011617
21
25.670000149011614
31
0
0
LINE
5
205
100
AcDbEntity
8
0
100
AcDbLine
10
10.000000149011612
20
62.425000149011609
30
0
11
10.000000149011612
21
63.010000149011617
31
0
0
LINE
5
206
100
AcDbEntity
8
0
100
AcDbLine
10
10.000000149011612
20
47.925000149011616
30
0
11
10.000000149011612
21
47.340000149011615
31
0
0
LINE
5
207
100
AcDbEntity
8
0
100
AcDbLine
10
10.000000149011612
20
43.755000149011622
30
0
11
10.000000149011612
21
44.340000149011615
31
0
0
LINE
5
208
100
AcDbEntity
8
0
100
AcDbLine
10
10.000000149011612
20
29.255000149011611
30
0
11
10.000000149011612
21
28.670000149011614
31
0
0
LINE
5
209
100
AcDbEntity
8
0
100
AcDbLine
10
10.000000149011612
20
63.010000149011617
30
0
11
25.677598522821157
21
63.010000149011617
31
0
0
LWPOLYLINE
5
210
100
AcDbEntity
8
0
100
AcDbPolyline
90
4
70
1
43
0.0
10
10.585000149011613
20
62.425000149011609
10
25.085000149011613
20
62.425000149011609
10
25.085000149011613
20
47.925000149011616
10
10.585000149011613
20
47.925000149011616
0
LINE
5
211
100
AcDbEntity
8
0
100
AcDbLine
10
10.000000149011612
20
47.340000149011615
30
0
11
25.677598522821157
21
47.340000149011615
31
0
0
LINE
5
212
100
AcDbEntity
8
0
100
AcDbLine
10
10.000000149011612
20
44.340000149011615
30
0
11
25.677598522821157
21
44.340000149011615
31
0
0
LWPOLYLINE
5
213
100
AcDbEntity
8
0
100
AcDbPolyline
90
4
70
1
43
0.0
10
10.585000149011613
20
43.755000149011622
10
25.085000149011613
20
43.755000149011622
10
25.085000149011613
20
29.255000149011611
10
10.585000149011613
20
29.255000149011611
0
LINE
5
214
100
AcDbEntity
8
0
100
AcDbLine
10
10.000000149011612
20
28.670000149011614
30
0
11
25.677598522821157
21
28.670000149011614
31
0
0
LINE
5
215
100
AcDbEntity
8
0
100
AcDbLine
10
28.670000149011614
20
28.670000149011614
30
0
11
44.340000149011615
21
28.670000149011614
31
0
0
LINE
5
216
100
AcDbEntity
8
0
100
AcDbLine
10
47.340000149011615
20
28.670000149011614
30
0
11
63.010000149011617
21
28.670000149011614
31
0
0
LWPOLYLINE
5
217
100
AcDbEntity
8
0
100
AcDbPolyline
90
4
70
1
43
0.0
10
47.925000149011616
20
29.255000149011607
10
62.425000149011609
20
29.255000149011614
10
62.425000149011609
20
43.755000149011622
10
47.925000149011616
20
43.755000149011622
0
LWPOLYLINE
5
218
100
AcDbEntity
8
0
100
AcDbPolyline
90
4
70
1
43
0.0
10
29.255000149011607
20
29.255000149011611
10
43.755000149011622
20
29.255000149011611
10
43.755000149011622
20
43.755000149011622
10
29.255000149011607
20
43.755000149011622
0
LINE
5
219
100
AcDbEntity
8
0
100
AcDbLine
10
28.670000149011614
20
44.340000149011615
30
0
11
44.340000149011615
21
44.340000149011615
31
0
0
LINE
5
220
100
AcDbEntity
8
0
100
AcDbLine
10
47.340000149011615
20
44.340000149011615
30
0
11
63.010000149011617
21
44.340000149011615
31
0
0
LINE
5
221
100
AcDbEntity
8
0
100
AcDbLine
10
28.670000149011614
20
47.340000149011615
30
0
11
44.340000149011615
21
47.340000149011615
31
0
0
LINE
5
222
100
AcDbEntity
8
0
100
AcDbLine
10
47.340000149011615
20
47.340000149011615
30
0
11
63.010000149011617
21
47.340000149011615
31
0
0
LWPOLYLINE
5
223
100
AcDbEntity
8
0
100
AcDbPolyline
90
4
70
1
43
0.0
10
47.925000149011616
20
47.925000149011616
10
62.425000149011609
20
47.925000149011616
10
62.425000149011609
20
62.425000149011609
10
47.925000149011616
20
62.425000149011609
0
LWPOLYLINE
5
224
100
AcDbEntity
8
0
100
AcDbPolyline
90
4
70
1
43
0.0
10
29.255000149011611
20
47.925000149011616
10
43.755000149011622
20
47.925000149011616
10
43.755000149011622
20
62.425000149011609
10
29.255000149011611
20
62.425000149011609
0
LINE
5
225
100
AcDbEntity
8
0
100
AcDbLine
10
28.670000149011614
20
63.010000149011617
30
0
11
44.340000149011615
21
63.010000149011617
31
0
0
LINE
5
226
100
AcDbEntity
8
0
100
AcDbLine
10
47.340000149011615
20
63.010000149011617
30
0
11
63.010000149011617
21
63.010000149011617
31
0
0
LINE
5
227
100
AcDbEntity
8
0
100
AcDbLine
10
10.000000149011612
20
63.010000149011617
30
0
11
10.585000149011613
21
63.010000149011617
31
0
0
LINE
5
228
100
AcDbEntity
8
0
100
AcDbLine
10
10.585000149011613
20
63.010000149011617
30
0
11
10.000000149011612
21
63.010000149011617
31
0
0
LINE
5
229
100
AcDbEntity
8
0
100
AcDbLine
10
10.000000149011612
20
10.000000149011612
30
0
11
10.585000149011613
21
10.000000149011612
31
0
0
LINE
5
230
100
AcDbEntity
8
0
100
AcDbLine
10
25.670000149011614
20
10.000000149011612
30
0
11
25.085000149011613
21
10.000000149011612
31
0
0
LINE
5
231
100
AcDbEntity
8
0
100
AcDbLine
10
28.670000149011614
20
10.000000149011612
30
0
11
29.255000149011611
21
10.000000149011612
31
0
0
LINE
5
232
100
AcDbEntity
8
0
100
AcDbLine
10
25.085000149011613
20
10.000000149011612
30
0
11
25.677598522821157
21
10.000000149011612
31
0
0
LINE
5
233
100
AcDbEntity
8
0
100
AcDbLine
10
25.677598522821157
20
63.010000149011617
30
0
11
25.085000149011613
21
63.010000149011617
31
0
0
LINE
5
234
100
AcDbEntity
8
0
100
AcDbLine
10
29.255000149011611
20
10.000000149011612
30
0
11
28.670000149011614
21
10.000000149011612
31
0
0
LINE
5
235
100
AcDbEntity
8
0
100
AcDbLine
10
28.670000149011614
20
63.010000149011617
30
0
11
29.255000149011611
21
63.010000149011617
31
0
0
LINE
5
236
100
AcDbEntity
8
0
100
AcDbLine
10
28.670000149011614
20
47.340000149011615
30
0
11
28.670000149011614
21
63.010000149011617
31
0
0
LINE
5
237
100
AcDbEntity
8
0
100
AcDbLine
10
25.677598522821157
20
47.340000149011615
30
0
11
25.677598522821157
21
63.010000149011617
31
0
0
LWPOLYLINE
5
238
100
AcDbEntity
8
0
100
AcDbPolyline
90
4
70
1
43
0.0
10
25.085000149011613
20
10.585000149011613
10
25.08500014901162
20
25.08500014901162
10
10.585000149011613
20
25.085000149011613
10
10.585000149011613
20
10.585000149011613
0
LINE
5
239
100
AcDbEntity
8
0
100
AcDbLine
10
25.677598522821157
20
10.000000149011612
30
0
11
25.677598522821157
21
25.670000149011614
31
0
0
LINE
5
240
100
AcDbEntity
8
0
100
AcDbLine
10
25.677598522821157
20
28.670000149011614
30
0
11
25.677598522821157
21
44.340000149011615
31
0
0
LINE
5
241
100
AcDbEntity
8
0
100
AcDbLine
10
28.670000149011614
20
10.000000149011612
30
0
11
28.670000149011614
21
25.670000149011614
31
0
0
LINE
5
242
100
AcDbEntity
8
0
100
AcDbLine
10
28.670000149011614
20
28.670000149011614
30
0
11
28.670000149011614
21
44.340000149011615
31
0
0
LINE
5
243
100
AcDbEntity
8
0
100
AcDbLine
10
25.677598522821157
20
25.08500014901162
30
0
11
25.670000149011614
21
25.08500014901162
31
0
0
LINE
5
244
100
AcDbEntity
8
0
100
AcDbLine
10
25.677598522821157
20
10.585000149011613
30
0
11
25.670000149011614
21
10.585000149011609
31
0
0
LINE
5
245
100
AcDbEntity
8
0
100
AcDbLine
10
10.000000149011612
20
25.670000149011614
30
0
11
10.000000149011612
21
10.000000149011612
31
0
0
LINE
5
246
100
AcDbEntity
8
0
100
AcDbLine
10
10.000000149011612
20
63.010000149011617
30
0
11
10.000000149011612
21
47.340000149011615
31
0
0
LINE
5
247
100
AcDbEntity
8
0
100
AcDbLine
10
10.000000149011612
20
44.340000149011615
30
0
11
10.000000149011612
21
28.670000149011614
31
0
0
LINE
5
248
100
AcDbEntity
8
0
100
AcDbLine
10
44.340000149011615
20
10.000000149011612
30
0
11
43.755000149011622
21
10.000000149011612
31
0
0
LINE
5
249
100
AcDbEntity
8
0
100
AcDbLine
10
47.340000149011615
20
10.000000149011612
30
0
11
47.925000149011616
21
10.000000149011612
31
0
0
LINE
5
250
100
AcDbEntity
8
0
100
AcDbLine
10
43.755000149011622
20
10.000000149011612
30
0
11
44.340000149011615
21
10.000000149011612
31
0
0
LINE
5
251
100
AcDbEntity
8
0
100
AcDbLine
10
44.340000149011615
20
63.010000149011617
30
0
11
43.755000149011622
21
63.010000149011617
31
0
0
LINE
5
252
100
AcDbEntity
8
0
100
AcDbLine
10
47.925000149011616
20
10.000000149011612
30
0
11
47.340000149011615
21
10.000000149011612
31
0
0
LINE
5
253
100
AcDbEntity
8
0
100
AcDbLine
10
47.340000149011615
20
63.010000149011617
30
0
11
47.925000149011616
21
63.010000149011617
31
0
0
LINE
5
254
100
AcDbEntity
8
0
100
AcDbLine
10
47.340000149011615
20
47.340000149011615
30
0
11
47.340000149011615
21
63.010000149011617
31
0
0
LINE
5
255
100
AcDbEntity
8
0
100
AcDbLine
10
44.340000149011615
20
47.340000149011615
30
0
11
44.340000149011615
21
63.010000149011617
31
0
0
LINE
5
256
100
AcDbEntity
8
0
100
AcDbLine
10
47.340000149011615
20
10.000000149011612
30
0
11
47.340000149011615
21
25.670000149011614
31
0
0
LINE
5
257
100
AcDbEntity
8
0
100
AcDbLine
10
47.340000149011615
20
28.670000149011614
30
0
11
47.340000149011615
21
44.340000149011615
31
0
0
LINE
5
258
100
AcDbEntity
8
0
100
AcDbLine
10
44.340000149011615
20
10.000000149011612
30
0
11
44.340000149011615
21
25.670000149011614
31
0
0
LINE
5
259
100
AcDbEntity
8
0
100
AcDbLine
10
44.340000149011615
20
28.670000149011614
30
0
11
44.340000149011615
21
44.340000149011615
31
0
0
LINE
5
260
100
AcDbEntity
8
0
100
AcDbLine
10
63.010000149011617
20
10.000000149011612
30
0
11
62.425000149011609
21
10.000000149011612
31
0
0
LINE
5
261
100
AcDbEntity
8
0
100
AcDbLine
10
62.425000149011609
20
10.000000149011612
30
0
11
63.010000149011617
21
10.000000149011612
31
0
0
LINE
5
262
100
AcDbEntity
8
0
100
AcDbLine
10
63.010000149011617
20
63.010000149011617
30
0
11
62.425000149011609
21
63.010000149011617
31
0
0
LINE
5
263
100
AcDbEntity
8
0
100
AcDbLine
10
63.010000149011617
20
47.340000149011615
30
0
11
63.010000149011617
21
63.010000149011617
31
0
0
LINE
5
264
100
AcDbEntity
8
0
100
AcDbLine
10
63.010000149011617
20
10.000000149011612
30
0
11
63.010000149011617
21
25.670000149011614
31
0
0
LINE
5
265
100
AcDbEntity
8
0
100
AcDbLine
10
63.010000149011617
20
28.670000149011614
30
0
11
63.010000149011617
21
44.340000149011615
31
0
0
LINE
5
266
100
AcDbEntity
8
0
100
AcDbLine
10
0
20
63.010000149011617
30
0
11
0
21
73.01000346778892
31
0
0
LINE
5
267
100
AcDbEntity
8
0
100
AcDbLine
10
0
20
0
30
0
11
0
21
10.000000149011612
31
0
0
LINE
5
268
100
AcDbEntity
8
0
100
AcDbLine
10
0
20
20.000000298023224
30
0
11
0
21
53.01000346778892
31
0
0
LINE
5
269
100
AcDbEntity
8
0
100
AcDbLine
10
109.17000014901161
20
10.000000149011612
30
0
11
109.17000014901161
21
0
31
0
0
LINE
5
270
100
AcDbEntity
8
0
100
AcDbLine
10
109.17000014901161
20
73.01000346778892
30
0
11
109.17000014901161
21
63.010000149011617
31
0
0
LINE
5
271
100
AcDbEntity
8
0
100
AcDbLine
10
109.17000014901161
20
53.01000346778892
30
0
11
109.17000014901161
21
20.140181928425829
31
0
0
ENDSEC
0
SECTION
2
OBJECTS
0
DICTIONARY
5
C
100
AcDbDictionary
3
ACAD_GROUP
350
D
3
ACAD_MLINESTYLE
350
17
0
DICTIONARY
5
D
100
AcDbDictionary
0
DICTIONARY
5
1A
330
C
100
AcDbDictionary
0
DICTIONARY
5
17
100
AcDbDictionary
0
ENDSEC
0
EOF
